HIERARCHY
ROOT SimulationBone
{
	OFFSET 0.000000 0.000000 0.000000
	CHANNELS 6 Xposition Yposition Zposition Zrotation Yrotation Xrotation 
	JOINT Hips
	{
		OFFSET 0.000000 0.000000 0.000000
		CHANNELS 6 Xposition Yposition Zposition Zrotation Yrotation Xrotation 
		JOINT LeftUpLeg
		{
			OFFSET 0.103457 1.857824 10.548509
			CHANNELS 3 Zrotation Yrotation Xrotation
			JOINT LeftLeg
			{
				OFFSET 43.500000 -0.000023 0.000006
				CHANNELS 3 Zrotation Yrotation Xrotation
				JOINT LeftFoot
				{
					OFFSET 42.372192 0.000011 -0.000009
					CHANNELS 3 Zrotation Yrotation Xrotation
					JOINT LeftToe
					{
						OFFSET 17.300005 0.000002 -0.000010
						CHANNELS 3 Zrotation Yrotation Xrotation
						End Site
						{
							OFFSET 0.000000 0.000000 0.000000
						}
					}
				}
			}
		}
		JOINT RightUpLeg
		{
			OFFSET 0.103458 1.857836 -10.548506
			CHANNELS 3 Zrotation Yrotation Xrotation
			JOINT RightLeg
			{
				OFFSET 43.500038 -0.000023 0.000017
				CHANNELS 3 Zrotation Yrotation Xrotation
				JOINT RightFoot
				{
					OFFSET 42.372269 -0.000019 0.000007
					CHANNELS 3 Zrotation Yrotation Xrotation
					JOINT RightToe
					{
						OFFSET 17.299999 -0.000003 0.000008
						CHANNELS 3 Zrotation Yrotation Xrotation
						End Site
						{
							OFFSET 0.000000 0.000000 0.000000
						}
					}
				}
			}
		}
		JOINT Spine
		{
			OFFSET 6.901969 -2.603729 0.000003
			CHANNELS 3 Zrotation Yrotation Xrotation
			JOINT Spine1
			{
				OFFSET 12.588093 -0.000007 0.000001
				CHANNELS 3 Zrotation Yrotation Xrotation
				JOINT Spine2
				{
					OFFSET 12.343206 0.000014 -0.000007
					CHANNELS 3 Zrotation Yrotation Xrotation
					JOINT Neck
					{
						OFFSET 25.832899 -0.000010 0.000002
						CHANNELS 3 Zrotation Yrotation Xrotation
						JOINT Head
						{
							OFFSET 11.766599 0.000010 -0.000001
							CHANNELS 3 Zrotation Yrotation Xrotation
							End Site
							{
								OFFSET 0.000000 0.000000 0.000000
							}
						}
					}
					JOINT LeftShoulder
					{
						OFFSET 19.745895 -1.480371 6.000111
						CHANNELS 3 Zrotation Yrotation Xrotation
						JOINT LeftArm
						{
							OFFSET 11.284124 -0.000010 -0.000007
							CHANNELS 3 Zrotation Yrotation Xrotation
							JOINT LeftForeArm
							{
								OFFSET 33.000061 0.000006 0.000028
								CHANNELS 3 Zrotation Yrotation Xrotation
								JOINT LeftHand
								{
									OFFSET 25.200001 0.000019 0.000008
									CHANNELS 3 Zrotation Yrotation Xrotation
									End Site
									{
										OFFSET 0.000000 0.000000 0.000000
									}
								}
							}
						}
					}
					JOINT RightShoulder
					{
						OFFSET 19.746101 -1.480375 -6.000078
						CHANNELS 3 Zrotation Yrotation Xrotation
						JOINT RightArm
						{
							OFFSET 11.284128 -0.000010 -0.000011
							CHANNELS 3 Zrotation Yrotation Xrotation
							JOINT RightForeArm
							{
								OFFSET 33.000095 0.000022 0.000002
								CHANNELS 3 Zrotation Yrotation Xrotation
								JOINT RightHand
								{
									OFFSET 25.199768 0.000129 0.000422
									CHANNELS 3 Zrotation Yrotation Xrotation
									End Site
									{
										OFFSET 0.000000 0.000000 0.000000
									}
								}
							}
						}
					}
				}
			}
		}
	}
}
MOTION
Frames: 11
Frame Time: 0.033333
-152.605253 0.000000 -433.872269 0.000000 -16.172519 0.000000 -4.128215 86.002502 0.721968 88.706844 2.177233 -153.894747 150.943192 4.055999 160.414998 -47.590900 6.537393 -17.239022 94.950797 11.206592 -2.069116 21.454558 0.003113 0.000021 138.988148 15.315902 -168.546775 -55.245944 -3.995291 5.188647 80.318025 -3.273275 0.874049 21.454553 -0.003090 0.000002 9.814201 2.575078 -1.926727 9.541383 5.300108 -3.638105 9.222525 5.277919 -3.670079 8.586132 11.899600 28.523691 -25.078243 -16.406668 38.735464 129.786380 -77.955818 49.522041 -38.913804 54.476619 3.759865 -64.797110 -7.243142 1.784775 -2.016625 -1.366805 8.267430 -145.509913 80.836334 36.524628 -3.540877 -59.330015 -15.531133 -55.128472 23.036565 -2.469651 17.799985 16.437747 27.343542 
-157.119539 0.000000 -433.776111 0.000000 -9.288971 0.000000 -4.282393 86.251343 -0.440312 88.809714 1.899126 -163.224631 149.215386 5.370805 163.466958 -45.368432 5.586506 -19.676281 90.998446 13.030285 -1.244876 21.454560 0.003108 0.000016 140.226284 14.151707 -170.747544 -64.164860 -2.872312 4.124651 83.105965 -2.425293 1.505157 21.454548 -0.003093 -0.000001 9.686655 2.657018 -1.607772 9.299574 5.434494 -2.999889 8.980418 5.416150 -3.032712 7.543479 11.395041 28.580286 -23.452682 -16.148671 38.305784 131.019803 -78.383463 48.242053 -36.625599 55.053630 5.551145 -63.419700 -7.553300 1.753076 -2.472019 -3.412086 8.583750 -155.256989 81.890533 26.617358 -17.623413 -56.747773 -12.533188 -54.102229 22.279889 -2.380332 16.589281 16.666816 25.381842 
-161.756161 0.000000 -433.635806 0.000000 -3.005623 0.000000 -4.181189 86.076927 -1.472270 88.840937 1.116071 -171.428814 147.517497 6.879500 165.519130 -42.764689 4.858494 -21.832973 87.548238 14.793015 0.073391 21.454557 0.003121 0.000019 142.385416 13.533998 -173.800174 -72.054022 -1.041947 1.641957 85.566096 -0.778398 1.513671 21.454541 -0.003095 -0.000003 9.524907 2.609240 -1.294281 8.991214 5.311013 -2.384276 8.671939 5.296386 -2.416374 6.768419 10.728740 28.554330 -23.133793 -16.102207 38.127164 132.525436 -78.700766 46.696822 -33.684809 55.377497 7.880794 -62.902866 -7.947813 1.760399 -3.037550 -3.742128 11.231676 -165.900637 83.081738 15.830405 -29.363328 -54.219001 -10.858755 -54.191899 22.002654 -2.364493 14.396879 16.695139 19.915520 
-166.500313 0.000000 -433.456852 0.000000 2.695324 0.000000 -3.902300 85.521378 -2.356152 89.274736 -0.159954 -178.058390 146.086681 8.745803 165.582487 -39.707144 5.090461 -22.899072 84.137617 16.015250 2.060670 21.454560 0.003106 0.000017 146.507899 13.802003 -175.503241 -77.438404 -0.257590 -2.944963 87.849313 2.960938 5.038492 21.454563 -0.003090 0.000000 9.422857 2.455123 -1.015738 8.800981 4.980265 -1.843439 8.481776 4.968908 -1.873548 5.731343 9.823361 28.353859 -23.457335 -15.875176 37.796778 134.423273 -78.721892 44.779116 -30.093752 55.207586 10.275506 -63.637371 -7.780106 1.776926 -3.819613 -3.564238 13.705804 -175.146691 83.665186 6.487341 -39.152410 -51.540327 -9.010953 -55.831271 21.921600 -2.418204 10.495308 16.385260 10.545249 
-171.337189 0.000000 -433.244746 0.000000 7.865538 0.000000 -3.627374 84.766006 -2.989898 89.714811 -1.305290 177.091035 144.451780 10.540604 164.505188 -36.350407 5.858351 -22.531471 80.166395 16.498634 4.398798 21.454560 0.003099 0.000017 152.072400 14.105103 -176.175837 -79.387077 0.339516 -9.616974 88.224543 7.941621 7.226788 21.454541 -0.003092 0.000000 9.296419 2.331907 -0.796598 8.557933 4.716239 -1.419729 8.238785 4.707443 -1.448247 4.179038 8.849108 28.151405 -23.441223 -15.507031 37.316185 137.094082 -78.686641 42.083958 -26.407104 54.654060 12.994082 -65.604548 -7.445366 1.830047 -4.253348 -3.246133 12.442229 179.609455 84.003445 1.197070 -47.955609 -48.874962 -6.304898 -57.976886 22.047248 -2.506586 6.181773 15.409940 -0.744728 
-176.251982 0.000000 -433.004987 0.000000 12.572856 0.000000 -3.395832 83.904800 -3.327409 90.198412 -2.277262 173.819754 143.161448 11.910994 163.692655 -32.449915 5.571791 -21.080390 75.862214 16.509377 6.898486 21.454558 0.003119 0.000018 158.983759 13.178802 -176.411820 -76.835271 1.039633 -15.722421 84.605205 13.047669 9.760590 21.454550 -0.003093 -0.000001 9.174401 2.223494 -0.608605 8.321609 4.484917 -1.056573 8.002496 4.478316 -1.083697 3.109118 8.350925 28.010802 -23.750832 -15.709191 37.257504 138.244395 -78.502936 40.935318 -23.401659 54.206130 14.637071 -67.551964 -6.724389 1.857190 -4.500451 -3.672443 9.450676 173.893515 84.448541 -4.559656 -54.850008 -46.475107 -2.173084 -61.169876 21.548268 -2.594267 3.211025 13.294914 -10.990615 
-181.229887 0.000000 -432.743072 0.000000 16.889515 0.000000 -3.076610 83.368439 -3.319872 90.261814 -1.946794 171.409908 142.409936 11.188097 161.870566 -28.159670 4.217786 -17.649035 71.390811 15.234057 8.852376 21.454557 0.003113 0.000018 166.196439 8.879699 -174.775908 -68.439827 0.678252 -15.688050 80.495699 9.429483 -5.731978 21.454555 -0.003091 0.000000 9.010544 2.336617 -0.256911 8.007676 4.685362 -0.351889 7.688429 4.683013 -0.380248 2.440898 7.883507 27.835987 -23.872030 -15.635234 36.999661 137.452885 -78.105918 41.765879 -21.083590 54.254296 15.495362 -69.507926 -6.392375 1.912676 -4.881853 -4.339728 8.356592 167.250924 84.806948 -11.244048 -59.452726 -44.407721 1.998303 -64.909268 20.650068 -2.679747 1.624895 11.264142 -18.783669 
-186.256098 0.000000 -432.464498 0.000000 20.885562 0.000000 -2.898591 82.979393 -2.997630 89.654026 -1.097480 169.752013 141.342678 9.599396 158.638998 -24.599413 3.222055 -12.387561 67.115051 11.195869 6.326496 21.454563 0.003094 0.000017 171.343341 4.679994 -171.800199 -58.417495 -0.481804 -9.874673 100.324612 5.866432 -8.755390 21.454553 -0.003092 0.000000 8.731205 2.503050 0.146630 7.466574 4.991446 0.454713 7.147159 4.993964 0.424480 1.819140 7.924869 27.669916 -22.957241 -15.434978 36.575660 136.256099 -78.226020 42.966418 -19.939696 55.069630 15.373837 -71.254384 -6.288288 1.976543 -5.695387 -4.930777 9.412895 158.904228 85.298175 -19.627442 -62.443290 -42.826816 5.869615 -68.616681 19.422678 -2.744953 1.079416 10.285642 -22.992515 
-191.315809 0.000000 -432.174763 0.000000 24.625839 0.000000 -3.156111 83.037743 -2.666580 88.828423 1.669236 168.469878 139.765819 6.159700 157.540622 -23.841906 3.991593 -5.249947 64.090274 0.154375 -9.353554 21.454563 0.003117 0.000018 171.329012 0.506300 -166.807208 -53.077598 -0.243380 -4.081227 106.593291 2.510100 -9.639866 21.454550 -0.003093 -0.000001 8.683962 3.206511 0.608387 7.406112 6.367608 1.422845 7.085975 6.375948 1.384213 1.318620 7.858951 27.853788 -23.362631 -16.082744 37.110074 138.174140 -77.855059 41.055550 -20.540160 56.466451 12.879581 -72.685323 -6.075315 2.020754 -6.533882 -5.145807 10.776742 154.481749 85.473377 -24.067515 -63.528293 -39.903116 7.381420 -71.579324 18.154520 -2.779228 0.688893 10.521928 -23.436365 
-196.394212 0.000000 -431.879364 0.000000 28.169126 0.000000 -2.984449 82.649773 -2.242068 88.272825 4.106405 166.486220 139.314481 1.400697 158.178999 -24.544905 4.006729 3.595135 68.094718 -16.014316 -35.839440 21.454557 0.003103 0.000026 167.869152 -2.826998 -164.836821 -53.704043 -1.567854 -1.520942 107.660010 0.983040 -9.003340 21.454551 -0.003092 0.000000 8.792096 3.602932 0.960221 7.653634 7.134624 2.160911 7.333089 7.147406 2.117585 -0.872627 8.112510 28.432346 -21.706809 -15.231267 37.087172 139.839790 -77.094476 39.426891 -19.140623 58.816583 10.924372 -73.216138 -6.082298 2.043259 -7.163117 -6.457379 10.826606 152.189333 85.064419 -26.397240 -63.561809 -36.694269 6.308642 -73.545886 17.112066 -2.788808 0.227981 11.937820 -20.576324 
-201.476504 0.000000 -431.583800 0.000000 31.568440 0.000000 -2.853582 83.338287 -1.933285 89.108085 3.707272 166.667423 139.376963 0.220396 160.234134 -30.332044 2.277592 9.459283 73.969692 -17.793005 -34.396706 21.454557 0.003108 0.000018 164.910492 -1.134507 -166.104422 -54.719579 0.793891 -0.555719 105.065501 0.130709 -8.088756 21.454550 -0.003091 0.000000 8.958218 3.321314 0.745505 7.966297 6.583515 1.720808 7.646067 6.593649 1.680849 -1.588969 8.855696 28.530720 -22.175211 -15.159526 37.428457 136.102693 -77.054854 43.212923 -17.642186 62.247387 10.118161 -72.471046 -5.944199 2.002810 -7.266222 -9.667108 7.942674 155.228425 84.811142 -23.353028 -62.732200 -36.061941 5.037323 -74.243091 16.476426 -2.773533 -0.149068 12.608951 -17.346742 
